<svg width="65" height="64" viewBox="0 0 65 64" fill="none" xmlns="http://www.w3.org/2000/svg">
<path d="M32.509 15C18.1521 15 6.50903 22.3906 6.50903 31.5C6.50903 40.6094 18.1521 48 32.509 48C46.8659 48 58.509 40.6094 58.509 31.5C58.509 22.3906 46.8659 15 32.509 15ZM32.509 40.9531C30.408 40.9531 28.6572 36.8281 28.4821 31.5859C31.1084 31.8438 33.8222 31.8438 36.4484 31.5859C36.3609 36.8281 34.61 40.9531 32.509 40.9531ZM28.7447 27.4609C29.3575 23.7656 30.7582 21.1875 32.509 21.1875C34.2599 21.1875 35.6605 23.7656 36.2733 27.4609C33.7346 27.7187 31.2834 27.7187 28.7447 27.4609ZM32.509 17.4062C29.7077 17.4062 27.3441 21.5312 26.4686 27.2031C21.2161 26.4297 17.4518 24.5391 17.4518 22.3906C17.4518 19.4687 24.1925 17.1484 32.509 17.1484C40.8255 17.1484 47.5663 19.4687 47.5663 22.3906C47.5663 24.5391 43.8895 26.3437 38.5494 27.2031C37.674 21.4453 35.3104 17.4062 32.509 17.4062ZM10.1858 30.8984C10.1858 28.0625 11.3238 25.4844 13.1622 23.25C13.1622 23.4219 13.1622 23.5937 13.1622 23.7656C13.1622 27.2891 18.5898 30.2969 26.0309 31.4141C26.0309 31.6719 26.0309 31.9297 26.0309 32.1875C26.0309 38.8047 27.8693 44.3047 30.4956 46.1953C19.2026 45.4219 10.1858 38.8906 10.1858 30.8984ZM34.435 46.1094C37.0612 44.2187 38.8996 38.6328 38.8996 32.1016C38.8996 31.8438 38.8996 31.5859 38.8996 31.3281C46.4282 30.2109 51.7683 27.2031 51.7683 23.6797C51.7683 23.5078 51.7683 23.3359 51.7683 23.1641C53.6942 25.3984 54.7447 28.0625 54.7447 30.8125C54.8323 38.8906 45.8154 45.4219 34.435 46.1094Z" fill="black"/>
</svg>
